<svg width="1200" height="300" viewBox="0 0 1200 300" xmlns="http://www.w3.org/2000/svg">
  <defs>
    <linearGradient id="bg-grad" x1="0%" y1="0%" x2="100%" y2="100%">
      <stop offset="0%" stop-color="#0f0c1b"/>
      <stop offset="100%" stop-color="#1a1528"/>
    </linearGradient>
    <linearGradient id="accent-grad" x1="0%" y1="0%" x2="100%" y2="100%">
      <stop offset="0%" stop-color="#ec4899"/>
      <stop offset="100%" stop-color="#8b5cf6"/>
    </linearGradient>
    <filter id="glow">
      <feGaussianBlur stdDeviation="3" result="coloredBlur"/>
      <feMerge>
        <feMergeNode in="coloredBlur"/>
        <feMergeNode in="SourceGraphic"/>
      </feMerge>
    </filter>
  </defs>
  
  <rect width="1200" height="300" fill="url(#bg-grad)" rx="15" />
  
  <g stroke="#3a2b58" stroke-width="1.5" opacity="0.6">
    <line x1="100" y1="50" x2="300" y2="100" />
    <circle cx="100" cy="50" r="4" fill="#8b5cf6"/>
    <circle cx="300" cy="100" r="4" fill="#8b5cf6"/>
    <line x1="300" y1="100" x2="250" y2="250" />
    <circle cx="250" cy="250" r="4" fill="#8b5cf6"/>
    <line x1="900" y1="200" x2="1100" y2="250" />
    <circle cx="900" cy="200" r="4" fill="#8b5cf6"/>
    <circle cx="1100" cy="250" r="4" fill="#8b5cf6"/>
    <line x1="900" y1="200" x2="1000" y2="80" />
    <circle cx="1000" cy="80" r="4" fill="#8b5cf6"/>
    <line x1="150" y1="250" x2="200" y2="180" />
    <circle cx="150" cy="250" r="4" fill="#8b5cf6"/>
    <circle cx="200" cy="180" r="4" fill="#8b5cf6"/>
  </g>
  
  <g>
    <text text-anchor="middle" x="600" y="150" font-family="system-ui, sans-serif" font-size="72" font-weight="900" fill="#ffffff" letter-spacing="2">
      Email-Infra-<tspan fill="url(#accent-grad)">Forensics</tspan>
    </text>
    <text text-anchor="middle" x="600" y="200" font-family="system-ui, sans-serif" font-size="22" font-weight="400" fill="#a78bfa" letter-spacing="4">
      OPEN-SOURCE SECURITY RESEARCH
    </text>
  </g>
</svg>
