<svg width="24" height="24" viewBox="0 0 24 24" fill="none" stroke="#ec4899" stroke-width="2" stroke-linecap="round" stroke-linejoin="round" xmlns="http://www.w3.org/2000/svg"><path d="M19.439 7.85c-.049.322.059.648.289.878l1.568 1.568c.47.47.706 1.087.706 1.704s-.235 1.233-.706 1.704l-1.611 1.611a.98.98 0 0 0-.253 1.02l.366 1.066c.27.787.093 1.675-.48 2.247s-1.46.75-2.247.48l-1.066-.366a.98.98 0 0 0-1.02.253l-1.611 1.611c-.47.47-1.087.706-1.704.706s-1.233-.235-1.704-.706l-1.568-1.568a.98.98 0 0 0-.878-.289l-1.138.175c-.822.127-1.636-.213-2.146-.893a2.404 2.404 0 0 1-.226-2.616l.488-1.031a.98.98 0 0 0-.05-1.047l-1.26-1.926c-.52-.796-.52-1.84 0-2.637l1.26-1.926a.98.98 0 0 0 .05-1.047L5.59 7.15c-.413-.873-.242-1.936.438-2.616s1.743-.85 2.616-.438l1.031.488c.348.165.753.111 1.047-.14l1.926-1.62c.796-.67 1.84-.67 2.637 0l1.926 1.62a.98.98 0 0 0 1.047.14l1.031-.488c.873-.413 1.936-.242 2.616.438s.85 1.743.438 2.616l-.488 1.031c-.165.348-.111.753.14 1.047z"></path></svg>